<svg width="28" height="28" viewBox="0 0 28 28" fill="none" xmlns="http://www.w3.org/2000/svg">
<rect width="28" height="28" rx="5" fill="#E3E5E8"/>
<path fill-rule="evenodd" clip-rule="evenodd" d="M14.0009 10.5004C12.8746 10.5004 11.7736 10.8349 10.8375 11.4613C9.90728 12.0839 9.18157 12.9671 8.7511 14C9.18157 15.033 9.90728 15.9161 10.8375 16.5387C11.7736 17.1652 12.8746 17.4997 14.0009 17.4997C15.1273 17.4997 16.2283 17.1652 17.1644 16.5387C18.0946 15.9161 18.8203 15.033 19.2508 14C18.8203 12.9671 18.0946 12.0839 17.1644 11.4613C16.2283 10.8349 15.1273 10.5004 14.0009 10.5004ZM10.1886 10.4918C11.3167 9.73679 12.6435 9.33374 14.0009 9.33374C15.3584 9.33374 16.6852 9.73679 17.8133 10.4918C18.9414 11.2468 19.8198 12.3198 20.3374 13.5746C20.34 13.5811 20.3426 13.5875 20.345 13.594C20.4422 13.856 20.4422 14.1441 20.345 14.406C20.3426 14.4126 20.34 14.419 20.3374 14.4255C19.8198 15.6803 18.9414 16.7533 17.8133 17.5083C16.6852 18.2633 15.3584 18.6664 14.0009 18.6664C12.6435 18.6664 11.3167 18.2633 10.1886 17.5083C9.06054 16.7533 8.18205 15.6803 7.66451 14.4255C7.66186 14.419 7.65933 14.4126 7.65691 14.406C7.55968 14.1441 7.55968 13.856 7.65691 13.594C7.65933 13.5875 7.66186 13.5811 7.66451 13.5746C8.18205 12.3198 9.06054 11.2468 10.1886 10.4918ZM14.0009 12.8334C13.3566 12.8334 12.8343 13.3557 12.8343 14C12.8343 14.6444 13.3566 15.1667 14.0009 15.1667C14.6453 15.1667 15.1676 14.6444 15.1676 14C15.1676 13.3557 14.6453 12.8334 14.0009 12.8334ZM11.6676 14C11.6676 12.7114 12.7123 11.6667 14.0009 11.6667C15.2896 11.6667 16.3343 12.7114 16.3343 14C16.3343 15.2887 15.2896 16.3334 14.0009 16.3334C12.7123 16.3334 11.6676 15.2887 11.6676 14Z" fill="#1E2024"/>
</svg>
