<svg width="28" height="28" viewBox="0 0 28 28" fill="none" xmlns="http://www.w3.org/2000/svg">
<rect width="28" height="28" rx="14" fill="#D03E3E" fill-opacity="0.2"/>
<path d="M20.0001 13.9998C20.0001 10.6861 17.3138 7.99984 14.0001 7.99984C12.5834 7.99984 11.2814 8.4909 10.255 9.31201L18.6876 17.7446C19.5087 16.7182 20.0001 15.4165 20.0001 13.9998ZM8.00008 13.9998C8.00008 17.3135 10.6864 19.9998 14.0001 19.9998C15.4168 19.9998 16.7184 19.5084 17.7449 18.6873L9.31226 10.2547C8.49115 11.2812 8.00008 12.5831 8.00008 13.9998ZM21.3334 13.9998C21.3334 15.9535 20.5691 17.7285 19.3236 19.0428C19.2931 19.101 19.2537 19.1557 19.2048 19.2046C19.1559 19.2535 19.101 19.2929 19.0427 19.3234C17.7284 20.5688 15.9537 21.3332 14.0001 21.3332C9.94999 21.3332 6.66675 18.0499 6.66675 13.9998C6.66675 12.0461 7.43093 10.2709 8.67651 8.95654C8.70702 8.89849 8.74652 8.8439 8.79533 8.79508C8.84418 8.74623 8.89868 8.70646 8.95679 8.67594C10.2711 7.43045 12.0464 6.6665 14.0001 6.6665C18.0502 6.6665 21.3334 9.94975 21.3334 13.9998Z" fill="#D03E3E"/>
</svg>
