<svg width="71" height="28" viewBox="0 0 71 28" fill="none" xmlns="http://www.w3.org/2000/svg">
<rect width="71" height="28" rx="5" fill="#1E2024"/>
<g clip-path="url(#clip0_3149_2853)">
<path fill-rule="evenodd" clip-rule="evenodd" d="M14.9997 8.75016C12.1002 8.75016 9.74967 11.1007 9.74967 14.0002C9.74967 16.8997 12.1002 19.2502 14.9997 19.2502C17.8992 19.2502 20.2497 16.8997 20.2497 14.0002C20.2497 11.1007 17.8992 8.75016 14.9997 8.75016ZM8.58301 14.0002C8.58301 10.4563 11.4558 7.5835 14.9997 7.5835C18.5435 7.5835 21.4163 10.4563 21.4163 14.0002C21.4163 17.544 18.5435 20.4168 14.9997 20.4168C11.4558 20.4168 8.58301 17.544 8.58301 14.0002ZM14.9997 9.91683C15.3218 9.91683 15.583 10.178 15.583 10.5002V13.0563L17.0721 12.3117C17.3603 12.1677 17.7107 12.2845 17.8548 12.5726C17.9988 12.8608 17.882 13.2112 17.5939 13.3552L15.2605 14.5219C15.0797 14.6123 14.865 14.6027 14.693 14.4964C14.521 14.3901 14.4163 14.2023 14.4163 14.0002V10.5002C14.4163 10.178 14.6775 9.91683 14.9997 9.91683Z" fill="#F9FAFA"/>
</g>
<path d="M32.586 18.5H30.966V9.824H32.586V18.5ZM35.5868 13.1C35.7108 12.976 35.8408 12.862 35.9768 12.758C36.1168 12.65 36.2628 12.56 36.4148 12.488C36.5708 12.412 36.7368 12.354 36.9128 12.314C37.0888 12.27 37.2808 12.248 37.4888 12.248C37.8248 12.248 38.1228 12.306 38.3828 12.422C38.6428 12.534 38.8588 12.694 39.0308 12.902C39.2068 13.106 39.3388 13.352 39.4268 13.64C39.5188 13.924 39.5648 14.238 39.5648 14.582V18.5H38.0828V14.582C38.0828 14.206 37.9968 13.916 37.8248 13.712C37.6528 13.504 37.3908 13.4 37.0388 13.4C36.7828 13.4 36.5428 13.458 36.3188 13.574C36.0948 13.69 35.8828 13.848 35.6828 14.048V18.5H34.2008V12.344H35.1068C35.2988 12.344 35.4248 12.434 35.4848 12.614L35.5868 13.1ZM42.5102 12.344V18.5H41.0222V12.344H42.5102ZM42.7142 10.55C42.7142 10.678 42.6882 10.798 42.6362 10.91C42.5842 11.022 42.5142 11.12 42.4262 11.204C42.3422 11.288 42.2422 11.356 42.1262 11.408C42.0102 11.456 41.8862 11.48 41.7542 11.48C41.6262 11.48 41.5042 11.456 41.3882 11.408C41.2762 11.356 41.1782 11.288 41.0942 11.204C41.0102 11.12 40.9422 11.022 40.8902 10.91C40.8422 10.798 40.8182 10.678 40.8182 10.55C40.8182 10.418 40.8422 10.294 40.8902 10.178C40.9422 10.062 41.0102 9.962 41.0942 9.878C41.1782 9.794 41.2762 9.728 41.3882 9.68C41.5042 9.628 41.6262 9.602 41.7542 9.602C41.8862 9.602 42.0102 9.628 42.1262 9.68C42.2422 9.728 42.3422 9.794 42.4262 9.878C42.5142 9.962 42.5842 10.062 42.6362 10.178C42.6882 10.294 42.7142 10.418 42.7142 10.55ZM48.4311 13.646C48.3871 13.702 48.3431 13.746 48.2991 13.778C48.2591 13.81 48.1991 13.826 48.1191 13.826C48.0431 13.826 47.9691 13.804 47.8971 13.76C47.8251 13.712 47.7391 13.66 47.6391 13.604C47.5391 13.544 47.4191 13.492 47.2791 13.448C47.1431 13.4 46.9731 13.376 46.7691 13.376C46.5091 13.376 46.2811 13.424 46.0851 13.52C45.8891 13.612 45.7251 13.746 45.5931 13.922C45.4651 14.098 45.3691 14.312 45.3051 14.564C45.2411 14.812 45.2091 15.094 45.2091 15.41C45.2091 15.738 45.2431 16.03 45.3111 16.286C45.3831 16.542 45.4851 16.758 45.6171 16.934C45.7491 17.106 45.9091 17.238 46.0971 17.33C46.2851 17.418 46.4971 17.462 46.7331 17.462C46.9691 17.462 47.1591 17.434 47.3031 17.378C47.4511 17.318 47.5751 17.254 47.6751 17.186C47.7751 17.114 47.8611 17.05 47.9331 16.994C48.0091 16.934 48.0931 16.904 48.1851 16.904C48.3051 16.904 48.3951 16.95 48.4551 17.042L48.8811 17.582C48.7171 17.774 48.5391 17.936 48.3471 18.068C48.1551 18.196 47.9551 18.3 47.7471 18.38C47.5431 18.456 47.3311 18.51 47.1111 18.542C46.8951 18.574 46.6791 18.59 46.4631 18.59C46.0831 18.59 45.7251 18.52 45.3891 18.38C45.0531 18.236 44.7591 18.028 44.5071 17.756C44.2551 17.484 44.0551 17.152 43.9071 16.76C43.7631 16.364 43.6911 15.914 43.6911 15.41C43.6911 14.958 43.7551 14.54 43.8831 14.156C44.0151 13.768 44.2071 13.434 44.4591 13.154C44.7111 12.87 45.0231 12.648 45.3951 12.488C45.7671 12.328 46.1951 12.248 46.6791 12.248C47.1391 12.248 47.5411 12.322 47.8851 12.47C48.2331 12.618 48.5451 12.83 48.8211 13.106L48.4311 13.646ZM51.3461 12.344V18.5H49.8581V12.344H51.3461ZM51.5501 10.55C51.5501 10.678 51.5241 10.798 51.4721 10.91C51.4201 11.022 51.3501 11.12 51.2621 11.204C51.1781 11.288 51.0781 11.356 50.9621 11.408C50.8461 11.456 50.7221 11.48 50.5901 11.48C50.4621 11.48 50.3401 11.456 50.2241 11.408C50.1121 11.356 50.0141 11.288 49.9301 11.204C49.8461 11.12 49.7781 11.022 49.7261 10.91C49.6781 10.798 49.6541 10.678 49.6541 10.55C49.6541 10.418 49.6781 10.294 49.7261 10.178C49.7781 10.062 49.8461 9.962 49.9301 9.878C50.0141 9.794 50.1121 9.728 50.2241 9.68C50.3401 9.628 50.4621 9.602 50.5901 9.602C50.7221 9.602 50.8461 9.628 50.9621 9.68C51.0781 9.728 51.1781 9.794 51.2621 9.878C51.3501 9.962 51.4201 10.062 51.4721 10.178C51.5241 10.294 51.5501 10.418 51.5501 10.55ZM56.109 15.872C55.681 15.892 55.321 15.93 55.029 15.986C54.737 16.038 54.503 16.106 54.327 16.19C54.151 16.274 54.025 16.372 53.949 16.484C53.873 16.596 53.835 16.718 53.835 16.85C53.835 17.11 53.911 17.296 54.063 17.408C54.219 17.52 54.421 17.576 54.669 17.576C54.973 17.576 55.235 17.522 55.455 17.414C55.679 17.302 55.897 17.134 56.109 16.91V15.872ZM52.713 13.202C53.421 12.554 54.273 12.23 55.269 12.23C55.629 12.23 55.951 12.29 56.235 12.41C56.519 12.526 56.759 12.69 56.955 12.902C57.151 13.11 57.299 13.36 57.399 13.652C57.503 13.944 57.555 14.264 57.555 14.612V18.5H56.883C56.743 18.5 56.635 18.48 56.559 18.44C56.483 18.396 56.423 18.31 56.379 18.182L56.247 17.738C56.091 17.878 55.939 18.002 55.791 18.11C55.643 18.214 55.489 18.302 55.329 18.374C55.169 18.446 54.997 18.5 54.813 18.536C54.633 18.576 54.433 18.596 54.213 18.596C53.953 18.596 53.713 18.562 53.493 18.494C53.273 18.422 53.083 18.316 52.923 18.176C52.763 18.036 52.639 17.862 52.551 17.654C52.463 17.446 52.419 17.204 52.419 16.928C52.419 16.772 52.445 16.618 52.497 16.466C52.549 16.31 52.633 16.162 52.749 16.022C52.869 15.882 53.023 15.75 53.211 15.626C53.399 15.502 53.629 15.394 53.901 15.302C54.177 15.21 54.497 15.136 54.861 15.08C55.225 15.02 55.641 14.984 56.109 14.972V14.612C56.109 14.2 56.021 13.896 55.845 13.7C55.669 13.5 55.415 13.4 55.083 13.4C54.843 13.4 54.643 13.428 54.483 13.484C54.327 13.54 54.189 13.604 54.069 13.676C53.949 13.744 53.839 13.806 53.739 13.862C53.643 13.918 53.535 13.946 53.415 13.946C53.311 13.946 53.223 13.92 53.151 13.868C53.079 13.812 53.021 13.748 52.977 13.676L52.713 13.202ZM60.3488 13.412C60.5408 13.044 60.7688 12.756 61.0328 12.548C61.2968 12.336 61.6088 12.23 61.9688 12.23C62.2528 12.23 62.4808 12.292 62.6528 12.416L62.5568 13.526C62.5368 13.598 62.5068 13.65 62.4668 13.682C62.4308 13.71 62.3808 13.724 62.3168 13.724C62.2568 13.724 62.1668 13.714 62.0468 13.694C61.9308 13.674 61.8168 13.664 61.7048 13.664C61.5408 13.664 61.3948 13.688 61.2668 13.736C61.1388 13.784 61.0228 13.854 60.9188 13.946C60.8188 14.034 60.7288 14.142 60.6488 14.27C60.5728 14.398 60.5008 14.544 60.4328 14.708V18.5H58.9508V12.344H59.8208C59.9728 12.344 60.0788 12.372 60.1388 12.428C60.1988 12.48 60.2388 12.576 60.2588 12.716L60.3488 13.412Z" fill="#F9FAFA"/>
<defs>
<clipPath id="clip0_3149_2853">
<rect width="14" height="14" fill="white" transform="translate(8 7)"/>
</clipPath>
</defs>
</svg>
